<svg width="512" height="512" viewBox="0 0 512 512" fill="none" xmlns="http://www.w3.org/2000/svg">
  <rect width="512" height="512" rx="120" fill="#09090B"/>
  <circle cx="256" cy="256" r="166" fill="#0E7490" fill-opacity="0.18"/>
  <circle cx="256" cy="256" r="128" stroke="#22D3EE" stroke-width="22" stroke-opacity="0.34"/>
  <path d="M153 257C153 205 195 163 247 163H320C342 163 360 181 360 203C360 222 347 238 329 242C354 246 373 267 373 293C373 324 348 349 317 349H247C195 349 153 307 153 257Z" fill="#22D3EE"/>
  <path d="M215 201H316C326 201 334 209 334 219C334 229 326 237 316 237H215V201Z" fill="#09090B"/>
  <path d="M215 275H319C331 275 341 285 341 297C341 309 331 319 319 319H215V275Z" fill="#09090B"/>
  <path d="M184 201V319" stroke="#09090B" stroke-width="24" stroke-linecap="round"/>
  <path d="M119 212C91 240 91 285 119 313" stroke="#67E8F9" stroke-width="22" stroke-linecap="round"/>
  <path d="M82 174C33 223 33 302 82 351" stroke="#67E8F9" stroke-width="18" stroke-linecap="round" stroke-opacity="0.72"/>
  <path d="M393 212C421 240 421 285 393 313" stroke="#67E8F9" stroke-width="22" stroke-linecap="round"/>
  <path d="M430 174C479 223 479 302 430 351" stroke="#67E8F9" stroke-width="18" stroke-linecap="round" stroke-opacity="0.72"/>
</svg>
